<?xml version="1.0"?>
<!-- Created by MetaPost 1.803 on 2016.02.20:1531 -->
<svg version="1.1" xmlns="http://www.w3.org/2000/svg" xmlns:xlink="http://www.w3.org/1999/xlink" width="26.525238" height="26.525238" viewBox="0 0 26.525238 26.525238">
    <!-- Original BoundingBox: 0.000000 0.000000 26.525238 26.525238 -->
    <path d="M1.924057 18.406662C1.172226 19.158493,0.750000 20.178131,0.750000 21.241302C0.750000 22.304474,1.172226 23.324112,1.924057 24.075943C2.675888 24.827774,3.695526 25.250000,4.758698 25.250000C5.821869 25.250000,6.841507 24.827774,7.593338 24.075943" style="stroke:rgb(6.700134%,45.899963%,85.499573%); stroke-width: 1.500000;stroke-linecap: round;stroke-linejoin: round;stroke-miterlimit: 10.000000;fill: none;"></path>
    <path d="M24.601181 7.068100C25.353012 6.316269,25.775238 5.296631,25.775238 4.233459C25.775238 3.170288,25.353012 2.150650,24.601181 1.398819C23.849350 0.646988,22.829712 0.224762,21.766541 0.224762C20.703369 0.224762,19.683731 0.646988,18.931900 1.398819" style="stroke:rgb(6.700134%,45.899963%,85.499573%); stroke-width: 1.500000;stroke-linecap: round;stroke-linejoin: round;stroke-miterlimit: 10.000000;fill: none;"></path>
    <path d="M17.271408 12.737381C17.271408 11.674133,16.848969 10.654572,16.097198 9.902802C15.345428 9.151031,14.325867 8.728592,13.262619 8.728592C12.199371 8.728592,11.179810 9.151031,10.428040 9.902802C9.676270 10.654572,9.253830 11.674133,9.253830 12.737381C9.253830 13.800629,9.676270 14.820190,10.428040 15.571960C11.179810 16.323730,12.199371 16.746170,13.262619 16.746170C14.325867 16.746170,15.345428 16.323730,16.097198 15.571960C16.848969 14.820190,17.271408 13.800629,17.271408 12.737381Z" style="stroke:rgb(6.700134%,45.899963%,85.499573%); stroke-width: 1.500000;stroke-linecap: round;stroke-linejoin: round;stroke-miterlimit: 10.000000;fill: none;"></path>
    <path d="M18.931900 18.406662L13.262619 12.737381L18.931900 7.068100L24.601181 12.737381Z" style="fill: rgb(100.000000%,100.000000%,100.000000%);stroke: none;"></path>
    <path d="M7.593338 7.068100L13.262619 12.737381L7.593338 18.406662L1.924057 12.737381Z" style="fill: rgb(100.000000%,100.000000%,100.000000%);stroke: none;"></path>
    <path d="M1.924057 18.406662L10.427979 9.902740" style="stroke:rgb(6.700134%,45.899963%,85.499573%); stroke-width: 1.500000;stroke-linecap: round;stroke-linejoin: round;stroke-miterlimit: 10.000000;fill: none;"></path>
    <path d="M7.593338 24.075943L10.427979 21.241302" style="stroke:rgb(6.700134%,45.899963%,85.499573%); stroke-width: 1.500000;stroke-linecap: round;stroke-linejoin: round;stroke-miterlimit: 10.000000;fill: none;"></path>
    <path d="M16.097260 4.233459L18.931900 1.398819" style="stroke:rgb(6.700134%,45.899963%,85.499573%); stroke-width: 1.500000;stroke-linecap: round;stroke-linejoin: round;stroke-miterlimit: 10.000000;fill: none;"></path>
    <path d="M16.097260 15.572021L24.601181 7.068100" style="stroke:rgb(6.700134%,45.899963%,85.499573%); stroke-width: 1.500000;stroke-linecap: round;stroke-linejoin: round;stroke-miterlimit: 10.000000;fill: none;"></path>
</svg>
