<?xml version="1.0"?>
<!-- Created by MetaPost 1.803 on 2015.11.19:0027 -->
<svg version="1.1" xmlns="http://www.w3.org/2000/svg" xmlns:xlink="http://www.w3.org/1999/xlink" width="22.677124" height="22.677124" viewBox="0 0 22.677124 22.677124">
<!-- Original BoundingBox: 0.000000 0.000000 22.677124 22.677124 -->
  <path d="M22.677124 10.661438C22.677124 8.460999,19.216217 9.309937,18.540390 7.678268C17.864578 6.046646,20.911987 4.199799,19.356140 2.643860C17.800232 1.087860,15.953247 4.135330,14.321609 3.459488C12.690002 2.783646,13.538818 -0.677216,11.338394 -0.677124C9.138016 -0.677032,9.987030 2.783783,8.355392 3.459610C6.723785 4.135437,4.876907 1.087952,3.320984 2.643860C1.765045 4.199783,4.812531 6.046661,4.136734 7.678268C3.460922 9.309937,0.000000 8.460999,0.000000 10.661438C0.000000 12.861877,3.460907 12.012939,4.136734 13.644608C4.812546 15.276230,1.765137 17.123077,3.320984 18.679016C4.876892 20.235016,6.723877 17.187546,8.355515 17.863388C9.987122 18.539230,9.138306 22.000092,11.338730 22.000000C13.539108 21.999908,12.690094 18.539108,14.321732 17.863266C15.953339 17.187439,17.800217 20.234924,19.356140 18.679016C20.912079 17.123093,17.864594 15.276215,18.540390 13.644608C19.216202 12.012939,22.677124 12.861877,22.677124 10.661438Z" style="fill: rgb(6.700134%,45.899963%,85.499573%);stroke: none;"></path>
  <path d="M15.590530 10.661438C15.590530 9.533691,15.142456 8.452286,14.345093 7.654907C13.547714 6.857544,12.466309 6.409470,11.338562 6.409470C10.210815 6.409470,9.129410 6.857544,8.332031 7.654907C7.534668 8.452286,7.086594 9.533691,7.086594 10.661438C7.086594 11.789185,7.534668 12.870590,8.332031 13.667969C9.129410 14.465332,10.210815 14.913406,11.338562 14.913406C12.466309 14.913406,13.547714 14.465332,14.345093 13.667969C15.142456 12.870590,15.590530 11.789185,15.590530 10.661438Z" style="fill: rgb(100.000000%,100.000000%,100.000000%);stroke: none;"></path>
</svg>
