<?xml version="1.0"?>
<!-- Created by MetaPost 1.803 on 2015.11.19:0027 -->
<svg version="1.1" xmlns="http://www.w3.org/2000/svg" xmlns:xlink="http://www.w3.org/1999/xlink" width="24.094452" height="24.094452" viewBox="0 0 24.094452 24.094452">
<!-- Original BoundingBox: 0.000000 0.000000 24.094452 24.094452 -->
  <path d="M7.086609 11.952774C7.086609 11.012985,6.713226 10.111801,6.048752 9.447327C5.384277 8.782852,4.483093 8.409470,3.543304 8.409470C2.603516 8.409470,1.702332 8.782852,1.037857 9.447327C0.373383 10.111801,0.000000 11.012985,0.000000 11.952774C0.000000 12.892563,0.373383 13.793747,1.037857 14.458221C1.702332 15.122696,2.603516 15.496078,3.543304 15.496078C4.483093 15.496078,5.384277 15.122696,6.048752 14.458221C6.713226 13.793747,7.086609 12.892563,7.086609 11.952774Z" style="fill: rgb(6.700134%,45.899963%,85.499573%);stroke: none;"></path>
  <path d="M24.094452 20.456696C24.094452 19.516907,23.721069 18.615723,23.056595 17.951248C22.392120 17.286774,21.490936 16.913391,20.551147 16.913391C19.611359 16.913391,18.710175 17.286774,18.045700 17.951248C17.381226 18.615723,17.007843 19.516907,17.007843 20.456696C17.007843 21.396484,17.381226 22.297668,18.045700 22.962143C18.710175 23.626617,19.611359 24.000000,20.551147 24.000000C21.490936 24.000000,22.392120 23.626617,23.056595 22.962143C23.721069 22.297668,24.094452 21.396484,24.094452 20.456696Z" style="fill: rgb(6.700134%,45.899963%,85.499573%);stroke: none;"></path>
  <path d="M24.094452 3.448853C24.094452 2.509064,23.721069 1.607880,23.056595 0.943405C22.392120 0.278931,21.490936 -0.094452,20.551147 -0.094452C19.611359 -0.094452,18.710175 0.278931,18.045700 0.943405C17.381226 1.607880,17.007843 2.509064,17.007843 3.448853C17.007843 4.388641,17.381226 5.289825,18.045700 5.954300C18.710175 6.618774,19.611359 6.992157,20.551147 6.992157C21.490936 6.992157,22.392120 6.618774,23.056595 5.954300C23.721069 5.289825,24.094452 4.388641,24.094452 3.448853Z" style="fill: rgb(6.700134%,45.899963%,85.499573%);stroke: none;"></path>
  <path d="M20.551147 20.456696L3.543304 11.952774L20.551147 3.448853" style="stroke:rgb(6.700134%,45.899963%,85.499573%); stroke-width: 1.500000;stroke-linecap: round;stroke-linejoin: round;stroke-miterlimit: 10.000000;fill: none;"></path>
</svg>
