<?xml version="1.0"?>
<!-- Created by MetaPost 1.803 on 2015.11.19:0027 -->
<svg version="1.1" xmlns="http://www.w3.org/2000/svg" xmlns:xlink="http://www.w3.org/1999/xlink" width="25.177124" height="25.177124" viewBox="0 0 25.177124 25.177124">
<!-- Original BoundingBox: 0.000000 0.000000 25.177124 25.177124 -->
  <path d="M23.927124 12.411438C23.927124 9.404129,22.732300 6.520355,20.605972 4.394028C18.479645 2.267700,15.595871 1.072876,12.588562 1.072876C9.581253 1.072876,6.697479 2.267700,4.571152 4.394028C2.444824 6.520355,1.250000 9.404129,1.250000 12.411438C1.250000 15.418747,2.444824 18.302521,4.571152 20.428848C6.697479 22.555176,9.581253 23.750000,12.588562 23.750000C15.595871 23.750000,18.479645 22.555176,20.605972 20.428848C22.732300 18.302521,23.927124 15.418747,23.927124 12.411438Z" style="stroke:rgb(100.000000%,100.000000%,100.000000%); stroke-width: 2.500000;stroke-linecap: round;stroke-linejoin: round;stroke-miterlimit: 10.000000;fill: none;"></path>
  <path d="M12.588562 12.411438L12.588562 3.907516" style="stroke:rgb(100.000000%,100.000000%,100.000000%); stroke-width: 2.500000;stroke-linecap: round;stroke-linejoin: round;stroke-miterlimit: 10.000000;fill: none;"></path>
  <path d="M12.588562 12.411438L18.257843 15.246078" style="stroke:rgb(100.000000%,100.000000%,100.000000%); stroke-width: 2.500000;stroke-linecap: round;stroke-linejoin: round;stroke-miterlimit: 10.000000;fill: none;"></path>
</svg>
